<svg version="1.1" fill="rgb(255, 77, 118)" xmlns="http://www.w3.org/2000/svg" style="display: block;" viewBox="0 0 2048 2048" width="1024" height="1024" preserveAspectRatio="none">
<path transform="translate(0,0)" d="M 1529.89 477.319 C 1570.13 483.139 1610.17 489.315 1650.6 493.879 C 1656.1 494.5 1661.56 495.346 1666.92 496.748 C 1669.74 500.891 1667.72 512.274 1667.14 517.477 C 1679.74 518.559 1692.85 521.139 1705.25 523.694 C 1704.15 529.856 1703.38 536.353 1702.55 542.586 L 1721.83 545.301 C 1721.28 551.791 1720.43 558.132 1719.61 564.59 C 1725.83 565.201 1732.28 566.082 1738.5 566.842 C 1736.81 575.176 1735.73 586.995 1734.5 595.753 L 1726.34 653.141 C 1725.25 661.002 1723.24 679.34 1720.65 686.012 C 1715.62 688.519 1708.06 686.005 1702.48 684.724 C 1702.12 691.07 1701.1 697.89 1700.29 704.251 C 1692.99 703.492 1687.12 702.811 1679.92 701.49 C 1679.12 708.095 1678.7 714.06 1677.73 720.831 C 1664.3 719.901 1653.23 718.994 1639.98 716.702 C 1639.48 724.291 1639.22 728.86 1637.66 736.247 C 1644.38 736.879 1648.41 737.718 1654.99 739.107 C 1654 745.788 1653.42 752.635 1652.75 759.37 C 1640.26 758.589 1625.44 756.218 1612.97 754.38 C 1613.86 748.009 1614.41 740.584 1615.05 734.102 C 1608.76 732.992 1603.75 732.36 1597.4 731.691 C 1598.18 724.985 1599.34 718.973 1600.58 712.347 C 1579.83 709.457 1559.13 706.244 1538.48 702.708 C 1537.91 708.557 1536.41 716.228 1535.4 722.154 L 1516.28 720.87 C 1515.93 726.541 1514.47 734.629 1513.58 740.424 C 1500.61 739.172 1488.31 737.45 1475.62 734.447 C 1475.95 727.888 1476.63 721.217 1477.22 714.666 L 1497.67 717.487 C 1498.39 710.202 1499.09 705.564 1500.52 698.38 L 1460.35 692.326 C 1461.66 686.099 1463.37 679.394 1464.84 673.154 C 1457.59 671.914 1451.95 671.324 1444.6 670.685 C 1445.32 663.583 1445.96 658.144 1447.28 651.151 C 1441.34 650.026 1434.7 649.098 1428.68 648.122 C 1434.56 610.067 1440.88 566.059 1445.45 528.164 C 1451.91 528.806 1458.37 529.505 1464.81 530.261 C 1465.54 523.776 1465.96 517.266 1466.44 510.757 C 1473.08 511.447 1480 512.421 1486.65 513.255 L 1488.9 493.657 C 1501.69 494.916 1514.06 496.062 1526.43 499.787 C 1527.75 492.487 1528.79 484.694 1529.89 477.319 z M 1524.56 519.093 C 1513.47 517.869 1498.63 516.618 1487.92 514.77 C 1487.13 520.94 1486.01 528.28 1485.54 534.377 L 1466.01 532.481 C 1464.6 552.731 1460.24 577.396 1457.27 597.912 C 1454.88 614.37 1452.67 633.96 1449.73 650.028 C 1456.27 650.713 1462.74 651.302 1469.22 652.424 C 1468.17 658.782 1467.28 665.165 1466.56 671.568 C 1517.75 675.343 1572.01 687.084 1623.51 692.452 L 1620.73 712.578 C 1623.62 712.924 1637.81 714.793 1639.76 714.581 C 1640.15 707.889 1640.45 701.222 1641.22 694.562 C 1652.93 696.13 1668.42 697.782 1679.63 700.575 L 1681.32 680.525 C 1688 680.98 1694 681.308 1700.62 682.392 C 1704.94 647.064 1710.63 600.983 1717.03 566.319 C 1710.87 565.608 1704.69 565.003 1698.51 564.503 C 1699.21 558.308 1699.97 549.43 1701.04 543.497 C 1688.64 541.338 1674.45 540.136 1662.8 537.802 C 1663.77 531.376 1664.88 524.969 1666.11 518.587 C 1627.38 513.756 1588.65 506.975 1549.8 502.632 C 1542.47 501.811 1534.67 500.854 1527.4 499.694 C 1526.71 505.419 1525.96 513.792 1524.56 519.093 z"/>
<path transform="translate(0,0)" d="M 1527.1 598.874 C 1532.93 599.332 1539.41 600.297 1545.28 601.045 C 1544.59 606.771 1543.99 612.507 1543.48 618.251 C 1567.35 620.57 1593.29 625.488 1617.52 628.434 C 1618.2 622.147 1616.71 617.229 1620.69 612.559 C 1624.9 611.318 1631.26 612.806 1635.9 613.478 L 1633.6 629.008 L 1633.6 629.939 L 1632.52 630.991 C 1627.15 631.284 1622.78 629.787 1617.53 628.471 C 1617.22 634.446 1616.67 639.367 1615.97 645.289 C 1591.05 643.622 1565.27 638.951 1540.2 636.344 C 1540.75 631.506 1540.72 624.527 1540.85 619.506 L 1525.98 616.562 C 1526.15 610.962 1526.72 604.537 1527.1 598.874 z"/>
<path transform="translate(0,0)" d="M 1518.84 546.047 C 1527.72 546.159 1536.57 547.118 1545.27 548.911 C 1544.94 554.044 1544.39 577.134 1541.26 579.374 C 1533.09 579.067 1522.48 577.557 1514.25 576.587 C 1514.95 567.683 1516.03 554.453 1518.84 546.047 z"/>
<path transform="translate(0,0)" d="M 1625.61 561.898 C 1633.9 562.559 1640.21 562.953 1648.32 564.655 C 1647.27 569.018 1647.01 573.187 1646.56 577.649 L 1658.13 579.203 C 1657.36 583.492 1656.94 588.875 1656.47 593.287 L 1644.39 592.919 L 1645.43 578.371 C 1642.97 575.703 1628.55 575.752 1624.36 575.539 C 1623.58 580.399 1623.81 586.213 1619.8 588.822 C 1612.02 588.372 1606.73 580.532 1613.32 573.998 C 1616.91 572.552 1619.58 573.576 1623.47 574.32 C 1624.25 570.265 1624.91 565.987 1625.61 561.898 z"/>
<path transform="translate(0,0)" d="M 735.751 458.158 C 768.068 458.758 751.336 492.989 740.524 508.26 C 746.58 510.122 751.65 512.345 755.77 517.458 C 767.8 532.389 735.76 549.296 733.699 554.873 C 733.459 555.522 737.247 562.936 736.707 566.003 C 735.508 572.813 731.403 577.932 725.67 581.606 C 712.844 589.825 695.547 591.034 680.9 588.153 C 684.697 605.769 692.943 627.802 685.473 644.323 C 682.337 651.732 667.736 657.763 660.156 659.901 C 617.003 672.071 573.785 687.282 530.186 697.393 C 493.157 705.98 490.505 670.812 482.553 644.647 C 480.795 646.238 478.978 647.762 477.105 649.215 C 463.455 659.601 439.638 668.023 425.14 654.669 C 419.607 649.572 422.587 645.628 419.406 641.147 L 415.253 641.456 C 403.42 640.879 380.596 637.978 381.409 620.04 C 381.644 614.867 387.023 610.457 390.989 607.546 C 378.347 603.581 357.42 593.557 358.014 578.178 C 358.728 559.67 381.012 560.104 394.46 560.998 C 420.794 562.751 450.825 570.206 468.995 590.643 C 470.418 569.093 469.321 571.322 485.197 555.93 C 485.746 550.269 485.579 542.382 491.265 540.143 C 504.57 534.902 515.413 530.442 522.29 545.099 C 544.346 538.424 630.538 511.04 647.692 516.022 C 656.2 518.493 660.666 526.786 664.808 533.895 C 667.095 524.799 669.044 518.697 673.657 510.467 C 684.769 490.64 713.835 464.121 735.751 458.158 z M 511.715 598.828 L 536.149 592.184 C 541.305 582.92 544.865 576.727 552.991 569.543 C 569.325 555.102 594.379 553.772 613.138 564.342 C 615.358 565.611 617.548 566.932 619.705 568.304 L 659.981 556.547 C 653.732 538.581 653.617 526.1 631.947 527.123 C 597.186 536.214 562.599 545.96 528.205 556.356 C 515.41 560.215 501.718 563.842 489.413 568.917 C 478.904 573.251 476.509 600.397 486.733 605.501 C 492.509 604.943 505.789 600.88 511.715 598.828 z M 591.502 648.234 C 605.687 646.543 617.861 637.34 623.356 624.154 C 628.851 610.967 626.815 595.843 618.028 584.579 C 609.242 573.316 595.068 567.66 580.941 569.78 C 559.552 572.99 544.699 592.773 547.584 614.208 C 550.47 635.644 570.026 650.795 591.502 648.234 z M 677.108 576.407 C 687.537 577.653 721.664 580.551 724.907 564.799 C 725.327 562.755 722.707 560.991 720.958 560.168 C 715.238 560.185 708.702 561.15 704.517 556.734 C 705.565 547.436 756.281 536.43 742.807 521.268 C 727.661 516.431 716.737 535.917 708.271 526.132 C 707.923 523.443 707.555 522.314 709.783 520.181 C 718.827 511.521 750.042 487.199 741.483 472.014 C 739.282 470.286 739.439 470.144 736.727 469.754 C 713.458 480.126 688.287 502.719 679.2 527.027 C 672.555 544.806 672.853 558.263 677.108 576.407 z M 435.633 640.064 C 432.539 643.553 433.164 641.679 432.571 645.502 C 441.821 657.172 475.7 641.7 478.253 629.462 C 479.711 622.472 467.537 605.943 462.793 600.851 C 444.754 581.494 408.864 570.884 383 572.339 C 377.333 573.151 370.013 572.854 370.15 579.927 C 382.282 602.653 421.264 595.496 427.401 606.491 C 423.336 614.837 402.895 611.99 394.273 619.864 C 393.809 623.19 393.605 621.529 395.612 624.878 C 405.368 631.371 422.357 629.306 433.504 627.272 C 437.456 626.551 438.648 625.239 442.806 625.849 C 448.724 631.231 439.92 637.474 435.633 640.064 z"/>
<path transform="translate(0,0)" d="M 635.715 536.134 C 644.56 535.159 647.433 543.414 642.482 549.755 C 639.256 553.885 635.465 554.168 630.713 555.464 C 622.77 555.422 616.044 551.28 621.466 542.73 C 624.716 537.603 630.176 537.274 635.715 536.134 z"/>
<path transform="translate(0,0)" d="M 581.68 581.131 C 591.823 579.22 602.205 582.972 608.782 590.927 C 615.36 598.882 617.095 609.783 613.312 619.387 C 609.53 628.991 600.826 635.781 590.591 637.113 C 575.373 639.094 561.34 628.608 558.928 613.453 C 556.515 598.297 566.599 583.973 581.68 581.131 z M 599.1 605.351 C 599.716 601.022 600.131 600.309 598.432 596.517 C 595.254 593.584 593.38 593.537 588.882 593.465 C 588.948 602.155 590.79 603.759 599.1 605.351 z"/>
<path transform="translate(0,0)" d="M 1198.94 1061.38 C 1218.6 1059.64 1234.04 1068.4 1240.14 1087.6 C 1242.82 1082.35 1245.42 1077.54 1249.94 1073.58 C 1253.75 1070.24 1258.68 1067.28 1263.95 1067.79 C 1267.95 1068.17 1271.12 1070.54 1273.59 1073.57 C 1288.97 1092.41 1281.84 1211.52 1279.3 1240.18 C 1276.17 1275.63 1269.22 1319.82 1240.06 1343.84 C 1222.53 1358.27 1200.51 1362.01 1178.39 1359.86 C 1157.54 1357.83 1138.11 1350.09 1124.57 1333.73 C 1118.07 1323.03 1117.47 1307.89 1129.15 1300.27 C 1145.2 1289.9 1162.11 1306.62 1177.05 1309.05 C 1212.82 1314.89 1222.03 1275.85 1226.31 1250.59 C 1217.53 1256.32 1211 1259.72 1200.4 1261.38 C 1182.61 1264.31 1164.4 1259.9 1149.92 1249.15 C 1105.41 1215.66 1120.37 1128.32 1150.49 1089.85 C 1164.52 1071.92 1176.49 1064.39 1198.94 1061.38 z M 1201.82 1212.4 C 1242.56 1191.68 1232.54 1119.62 1201.62 1117.84 C 1162.73 1130.66 1165.78 1219.88 1201.82 1212.4 z"/>
<path transform="translate(0,0)" d="M 799.353 1062.38 C 827.088 1059.79 834.791 1070.92 845.35 1094.53 C 853.363 1082.41 861.434 1072.09 875.602 1066.74 C 884.168 1063.51 893.478 1061.86 902.076 1065.97 C 912.406 1070.91 918.371 1082.66 921.916 1093.05 C 932.28 1123.44 933.499 1220.18 918.757 1248.46 C 915.535 1254.64 909.604 1260.66 902.731 1262.56 C 897.795 1263.91 892.222 1263.18 887.862 1260.49 C 863.318 1245.3 883.985 1163.18 876.65 1135.08 C 875.775 1131.73 873.817 1127.37 870.423 1125.91 C 868.34 1125.02 866.658 1125.09 864.602 1125.88 C 846.053 1132.98 848.035 1204.15 845.856 1221.88 C 844.406 1233.68 841.768 1244.19 836.919 1255.05 C 835.656 1256.73 834.38 1258.45 832.938 1259.98 C 829.486 1263.66 824.654 1266.57 819.493 1266.47 C 778.652 1265.68 808.088 1149.51 787.725 1130.68 C 785.952 1129.04 783.76 1128.3 781.321 1128.73 C 776.425 1129.58 773.886 1134.9 772.017 1138.96 C 754.966 1175.94 775.452 1231.55 760.401 1254.43 C 756.928 1259.71 751.813 1263.02 745.567 1264.02 C 739.505 1264.98 733.439 1264.37 728.526 1260.43 C 717.076 1251.25 714.044 1228.79 712.443 1215.11 C 709.069 1186.27 705.29 1092.92 722.556 1072.23 C 726.563 1067.43 732.042 1064.36 738.34 1064.02 C 743.803 1063.72 749.253 1065.46 753.34 1069.14 C 759.031 1074.27 760.436 1080.52 760.967 1087.87 L 761.051 1089.16 C 771.749 1074.46 781.73 1066.9 799.353 1062.38 z"/>
<path transform="translate(0,0)" d="M 1256.2 738.18 C 1273.97 737.847 1280 752.202 1282.77 767.471 C 1286.82 789.779 1286.79 816.074 1285.41 838.695 C 1287.77 835.647 1290.24 832.681 1292.8 829.803 C 1302.7 818.744 1316.74 810.593 1331.69 810.393 C 1371.24 809.864 1386.75 854.523 1387.08 886.975 C 1387.42 920.584 1378.77 955.032 1355.64 979.761 C 1328.07 1004 1300.05 996.739 1276.62 971.961 C 1274.05 979.184 1269.7 987.208 1262.43 990.6 C 1257.94 992.697 1251.81 992.557 1247.27 990.67 C 1242.25 988.586 1239.03 984.468 1237.23 979.428 C 1228.88 955.973 1231.28 824.928 1233.59 795.722 C 1234.7 781.647 1235.53 761.004 1242.43 748.577 C 1245.56 742.939 1250.19 740.058 1256.2 738.18 z M 1307.74 937.422 C 1312.82 938.227 1317.39 937.913 1321.78 934.702 C 1339.48 921.761 1345.34 862.646 1314.2 863.051 C 1278.74 876.678 1268.74 924.693 1307.74 937.422 z"/>
<path transform="translate(0,0)" d="M 497.946 1150.39 L 499.624 1151.34 C 500.801 1154.45 501.152 1154.7 500.884 1158.07 C 496.501 1165.03 466.69 1170.61 457.373 1172.92 L 452.344 1186.82 C 467.173 1183.38 481.973 1178.62 497.138 1175.04 L 497.477 1175.74 C 502.896 1186.75 510.149 1221.75 514.412 1236.08 C 519.77 1254.09 526.082 1276.42 530.325 1294.92 C 530.879 1297.33 531.282 1302.02 529.394 1302.92 C 516.593 1309 393.932 1343.35 388.977 1342.72 C 382.683 1332.21 354.852 1228.02 354.991 1215.84 C 359.125 1211.05 404.99 1199.9 415.041 1196.93 C 411.37 1192.89 408.577 1190.65 404.442 1187.16 C 382.094 1194.04 359.636 1200.56 337.079 1206.71 C 341.443 1226.61 349.199 1251.57 354.729 1271.53 L 386.57 1386.86 C 431.909 1373.07 480.145 1360.12 525.899 1347.29 C 535.582 1344.39 545.314 1341.66 555.09 1339.09 C 548.612 1314.97 542.003 1290.88 535.263 1266.83 C 532.696 1257.65 521.417 1225.82 526.855 1219.63 C 532.119 1219.74 537.786 1226.74 538.371 1231.28 C 539.544 1240.37 543.998 1251.16 545.376 1259.67 C 548.881 1281.33 567.18 1324.1 566.163 1344.04 C 562.974 1351.92 499.418 1367.33 487.355 1370.75 L 427.14 1387.92 C 418.582 1390.37 387.082 1400.68 380.574 1398.07 C 376.468 1394.55 375.074 1389.8 373.651 1384.66 C 357.821 1327.43 341.998 1270.16 326.448 1212.86 C 325.366 1208.87 324.444 1202.9 326.331 1199.22 C 334.479 1193.63 394.385 1177.56 407.364 1174.33 C 414.99 1179.37 422.013 1186.21 428.227 1192.87 C 427.037 1202.45 425.612 1208.73 421.831 1217.62 C 433.57 1222.19 443.641 1223.51 446.23 1237.08 L 452.555 1225.89 C 438.727 1213.35 432.952 1214.23 439.086 1193.13 C 441.786 1183.84 444.075 1173.74 447.165 1164.31 C 458.934 1159.21 484.977 1152.85 497.946 1150.39 z M 450.371 1198.96 C 449.377 1201.27 447.311 1204.35 448.56 1206.82 C 450.576 1210.8 457.982 1217.66 462.49 1217.67 L 463.017 1216.37 C 466.097 1208.95 471.026 1204.77 479.33 1207.97 C 482.865 1209.34 485.655 1212.14 487.008 1215.68 C 488.916 1220.76 487.857 1225.81 483.813 1229.49 C 476.482 1236.16 471.182 1232.05 464.638 1227.4 C 459.534 1237.07 446.3 1258.52 439.648 1267.63 C 422.34 1256.51 441.642 1240.96 430.128 1233.22 C 419.042 1225.77 404.177 1232 413.198 1208.92 C 397.62 1213.85 381.954 1218.49 366.208 1222.84 L 370.857 1239.66 C 374.643 1253.64 382.198 1285.56 386.462 1297.09 C 390.7 1288.25 401.427 1262.84 409.111 1258.54 C 419.018 1257.73 448.786 1278.88 456.611 1285.75 C 474.088 1248.58 473.433 1245.87 511.183 1268.39 L 512.172 1268.99 C 509.424 1260.61 490.746 1190.51 488.85 1189.17 C 476.085 1192.67 463.257 1195.94 450.371 1198.96 z"/>
<path transform="translate(0,0)" d="M 1014.18 1063.3 C 1096.15 1059.03 1101.67 1142.06 1103.72 1203.35 C 1104.29 1220.2 1104.79 1262.14 1083.82 1267.4 C 1063.81 1272.41 1053.09 1263.32 1048.54 1244.86 C 1021.95 1264.1 992.511 1272.52 964.568 1250.15 C 904.596 1189.83 986.958 1143.83 1042.68 1138.79 C 1041.86 1129.84 1039.78 1116.45 1031.1 1111.88 C 1011.34 1101.48 994.07 1122.89 976.989 1126.99 C 952.838 1132.79 945.105 1107.74 958.533 1090.67 C 972.677 1072.68 992.308 1066.62 1014.18 1063.3 z M 1009.16 1213.93 C 1024.2 1214.81 1032.42 1210.64 1044.26 1201.92 C 1044.39 1195.94 1045.6 1181.36 1042.51 1177.28 L 1039.89 1177.3 C 1025.49 1180.2 987.202 1197.21 1009.16 1213.93 z"/>
<path transform="translate(0,0)" d="M 573.136 737.002 L 574.774 737.029 C 604.028 737.78 600.4 818.365 598.524 838.355 C 608.619 826.801 620.566 819.203 635.974 816.903 C 646.786 815.29 657.125 816.95 665.922 823.768 C 679.661 834.416 684.181 851.627 686.274 868.028 C 688.857 888.278 691.694 973.594 678.591 989.343 C 674.905 993.773 669.026 996.654 663.276 996.922 C 657.347 997.199 651.836 994.7 647.635 990.59 C 633.549 976.81 636.842 937.715 636.926 918.89 C 636.78 908.139 637.189 893.946 632.244 884.062 C 630.545 880.666 628.256 878.187 624.544 877.035 C 619.509 875.471 613.351 875.649 608.662 878.177 C 602.362 881.574 598.638 888.476 596.895 895.184 C 590.864 918.388 597.505 946.822 590.394 972.323 C 587.91 981.23 583.38 988.947 574.89 993.335 C 570.055 995.834 564.13 996.4 558.945 994.67 C 553.382 992.814 549.687 988.312 547.236 983.162 C 532.915 953.065 543.3 792.501 555.255 758.211 C 558.718 748.278 563.628 741.626 573.136 737.002 z"/>
<path transform="translate(0,0)" d="M 1378.65 1059.36 C 1394.53 1057.73 1412.34 1061.62 1425.46 1070.93 C 1437.03 1079.13 1444.85 1091.61 1447.18 1105.6 C 1452.73 1140.61 1427.47 1169.22 1396.52 1181 C 1383.95 1185.79 1374.94 1187.13 1361.73 1189.11 C 1379.99 1224.02 1402.67 1204.8 1426.46 1190.46 C 1437.81 1183.62 1452.35 1184.79 1457.75 1198.14 C 1461.15 1206.53 1457.34 1214.33 1454.08 1222.08 C 1453.33 1223.32 1452.55 1224.54 1451.73 1225.74 C 1427.71 1260.42 1378.73 1275.02 1342.11 1249.13 C 1278.38 1204.07 1296.37 1071.12 1378.65 1059.36 z M 1374.25 1140.38 C 1385.11 1136.85 1394.09 1134.07 1400.09 1123.26 C 1407.17 1110.5 1395.85 1104.56 1384.51 1104.09 C 1366.42 1111.45 1362.25 1126.45 1359.79 1144 L 1374.25 1140.38 z"/>
<path transform="translate(0,0)" d="M 777.596 796.318 C 790.847 794.928 806.302 798.646 817.446 806.023 C 829.263 813.82 837.39 826.098 839.95 840.022 C 847.422 879.552 813.499 911.024 777.621 918.364 C 771.849 919.545 766.091 920.62 760.291 921.654 C 775.979 956.077 800.189 935.521 821.966 922.767 C 825.656 920.606 838.209 918.025 842.019 920.844 C 855.179 930.583 851.596 943.136 844.879 955.066 C 827.688 981.347 791.578 999.614 761.043 988.849 C 696.041 965.934 692.641 873.424 729.052 824.879 C 742.275 807.249 756.53 799.588 777.596 796.318 z M 757.956 877.543 L 772.567 874.46 C 776.907 873.07 781.171 871.814 785.084 869.412 C 799.047 860.844 804.553 841.945 782.733 839.913 C 765.134 845.37 760.865 861.198 757.956 877.543 z"/>
<path transform="translate(0,0)" d="M 1070.26 796.35 C 1084.03 795.459 1098.67 798.687 1110.17 806.496 C 1121.68 814.169 1129.49 826.284 1131.72 839.939 C 1139.75 890.473 1095.04 915.494 1052 921.452 C 1054.36 928.558 1057.95 935.293 1066.32 939.235 C 1092.79 951.703 1124.06 893.667 1142.23 932.74 C 1144.74 938.135 1140.37 948.84 1137.76 953.457 C 1136.66 955.259 1135.5 957.026 1134.29 958.757 C 1111.76 990.633 1065.35 1003.66 1032.87 978.649 C 986.651 943.062 989.662 868.256 1021.31 824.234 C 1033.27 807.596 1050.37 798.886 1070.26 796.35 z M 1050.66 877.539 L 1065.33 874.496 C 1075.32 870.402 1082.43 867.558 1087.58 857.11 C 1093.44 845.246 1083.26 839.999 1072.9 840.146 C 1056.54 847.416 1053.65 861.584 1050.66 877.539 z"/>
<path transform="translate(0,0)" d="M 1474.68 796.398 C 1526 797.136 1552.75 838.253 1525.2 884.289 C 1509.99 909.721 1483.04 916.277 1455.55 921.558 C 1467.09 955.754 1494.83 936.929 1514.12 924.197 C 1527.09 915.633 1538.69 919.874 1545.79 933.66 C 1544.9 946.216 1544.9 947.098 1538.3 957.712 C 1525.09 973.871 1504.9 990.028 1483.17 991.685 C 1374.58 999.96 1376.73 804.174 1474.68 796.398 z M 1453.43 877.787 C 1458.16 876.795 1463.64 875.814 1468.2 874.403 C 1477.1 871.495 1484.62 868.528 1489.27 859.695 C 1495.51 847.858 1488.49 839.623 1476.1 839.973 C 1459.47 846.961 1456.4 861.863 1453.43 877.787 z"/>
<path transform="translate(0,0)" d="M 888.763 806.232 C 909.396 807.46 910.751 820.92 912.937 838.306 C 916.695 831.571 919.12 827.271 924.668 821.723 C 940.667 805.722 974.79 805.543 989.689 823.452 C 995.769 830.799 998.567 840.32 997.427 849.788 C 994.339 875.903 963.858 862.449 949.877 859.752 C 931.267 856.162 918.373 890.43 917.739 905.86 C 917.078 927.789 919.877 960.502 911.92 980.095 C 901.078 1006.79 872.771 998.728 868.019 970.667 C 863.164 944.755 865.082 917.663 864.677 891.236 C 864.27 864.581 852.389 813.214 888.763 806.232 z"/>
<path transform="translate(0,0)" d="M 1605.12 1230.86 C 1608.36 1230.74 1608.8 1230.78 1612.02 1231.26 C 1614.64 1233.11 1616.63 1236.77 1616.91 1239.91 C 1621.65 1294.32 1585.1 1353.52 1530.88 1364.31 C 1528.63 1368.73 1526.2 1373.05 1523.59 1377.26 C 1507.81 1402.29 1477.19 1420.66 1448.68 1427.16 C 1418.5 1434.05 1373.51 1427.63 1347.41 1410.87 C 1351.51 1418.88 1359.92 1433.03 1360.08 1441.41 C 1358.87 1443.86 1357.64 1445.37 1355.09 1446.51 C 1353.08 1447.41 1350.86 1447.16 1349.02 1446.02 C 1343.9 1442.88 1322.95 1400.75 1321.49 1393.61 C 1321.15 1391.97 1320.74 1388.69 1321.87 1387.38 C 1326.81 1381.66 1375.76 1374.68 1385.35 1374.53 C 1388.55 1376.61 1388.8 1377.54 1390.7 1380.77 C 1390.26 1382.56 1389.58 1385.49 1388.35 1386.75 C 1382.08 1393.17 1361.95 1394.02 1353.09 1395.03 C 1380.71 1410.6 1410.04 1418.12 1441.72 1412.32 C 1470.85 1406.88 1496.6 1390.03 1513.25 1365.52 C 1489.2 1361.35 1460.07 1347.69 1462.41 1318.5 C 1463.26 1308.33 1468.38 1298.99 1476.5 1292.8 C 1501.26 1273.71 1534.62 1294.14 1537.87 1322.79 C 1538.77 1330.75 1538.48 1339.53 1536.75 1347.36 C 1575.27 1330.21 1595.69 1299.48 1601.58 1257.59 C 1603.06 1247.05 1599.72 1239.05 1605.12 1230.86 z M 1506.24 1348.62 C 1511.35 1349.59 1515.08 1350.29 1520.33 1350.76 C 1523.25 1337.28 1525.07 1324.53 1517.42 1312.05 C 1513.35 1305.41 1504.95 1300.57 1497.15 1301.05 C 1463.32 1309.62 1480.53 1341.82 1506.24 1348.62 z"/>
<path transform="translate(0,0)" d="M 655.512 1087.15 C 695.544 1085.14 684.153 1176.1 683.659 1200.8 C 683.202 1223.66 681.986 1250.89 658.223 1261.14 C 625.525 1261.48 626.665 1213.9 626.747 1189.92 C 626.852 1159 621.555 1101.06 655.512 1087.15 z"/>
<path transform="translate(0,0)" d="M 1646.03 1063.72 C 1656.37 1067.62 1659.05 1091.69 1661.86 1102.12 C 1670.4 1106.04 1698.82 1112.16 1699.13 1121.91 C 1694.01 1130.87 1675.25 1138.11 1667.35 1146.86 C 1666.05 1158.54 1667.48 1173.91 1663.93 1184.31 C 1663.16 1186.55 1661.79 1186.53 1659.93 1187.1 C 1652.07 1185.15 1636.66 1170.58 1628.61 1164.73 C 1617.39 1165.18 1598.93 1175.68 1588.79 1172.47 C 1580.18 1169.75 1596.59 1138.23 1599.05 1133.1 C 1593.76 1125.94 1576 1104.62 1578.84 1096.42 C 1585.79 1090.56 1609.08 1095.01 1619.41 1094.35 C 1627.32 1086.31 1637.72 1067.76 1646.03 1063.72 z M 1625.38 1108.08 C 1616.79 1107.97 1606.55 1108.11 1598.14 1107.21 C 1602.42 1113.78 1609.68 1124.23 1613.07 1130.88 C 1610.56 1140.4 1606.61 1148.8 1602.5 1157.74 C 1611.36 1155.2 1626.15 1148.58 1633.45 1151.47 C 1641.07 1156.94 1646.89 1162.03 1653.95 1168.15 C 1652.02 1136.92 1651.69 1138.55 1678.68 1122.89 C 1670.34 1118.65 1653.13 1116.66 1649.4 1108.15 C 1647.19 1103.11 1647.37 1089.32 1642.75 1085.57 C 1637.23 1095.01 1633.35 1100.58 1625.38 1108.08 z"/>
<path transform="translate(0,0)" d="M 377.389 671.53 L 380.402 673.086 C 383.541 683.554 335.427 727.258 384.485 771.538 C 385.189 762.486 388.998 749.721 395.581 743.693 C 442.798 700.459 458.841 789.158 394.932 786.772 C 395.096 788.478 395.285 790.182 395.499 791.882 C 397.967 811.794 404.431 823.367 420.278 835.794 C 427.336 840.495 437.755 846.562 445.884 849.133 C 452.173 851.121 462.323 851.108 468.125 854.549 C 469.707 858.082 469.396 856.217 468.572 860.398 C 466.367 862.576 465.958 863.027 462.516 862.861 C 418.841 860.752 383.689 829.092 382.856 784.238 C 373.386 777.993 366.463 772.498 360.341 762.615 C 343.432 735.318 348.898 689.152 377.389 671.53 z M 407.751 773.357 C 416.348 769.665 422.663 766.057 426.396 756.858 C 430.183 747.528 422.362 744.526 415.145 743.815 C 406.179 748.099 395.536 762.379 396.043 772.476 L 397.341 774.6 C 401.574 775 403.517 774.284 407.751 773.357 z"/>
<path transform="translate(0,0)" d="M 518.528 1083.25 C 546.054 1081.52 574.688 1102.19 553.263 1130.25 C 549.931 1134.62 539.979 1141.41 538.433 1146.71 C 536.171 1154.47 542.462 1171.11 533.434 1176.02 C 519.448 1177.74 517.822 1162.52 516.452 1152.25 C 514.15 1130.41 533.728 1125.12 534.829 1112.42 C 525.868 1086.32 508.117 1114.03 496.017 1118.38 C 486.9 1121.66 479.095 1108.98 486.021 1100.88 C 494.836 1090.57 505.149 1085.31 518.528 1083.25 z"/>
<path transform="translate(0,0)" d="M 661.743 1033.35 C 692.663 1032.72 689.69 1066.5 656.73 1071.49 C 623.031 1069.78 628.831 1037.41 661.743 1033.35 z"/>
<path transform="translate(0,0)" d="M 533.401 1180.95 C 550.702 1183.66 550.538 1197.99 535.432 1203.3 C 519.091 1202.3 517.192 1187.04 533.401 1180.95 z"/>
</svg>